<svg xmlns="http://www.w3.org/2000/svg" fill="none" viewBox="0 0 1600 997" class="desktop-only" theme="bananaLight" w="full" data-v-5081bc72=""><path d="M0 0h1600v997H0z" fill="#fce8bd"/><path d="M1129.17 2162.68c-1.18.15-2.39.18-3.58.09-19.43-1.53-38.85-3.42-58.23-5.59-1-.11-2-.31-2.98-.59-28.09-8.07-57.18-13.77-83.444-27.14-7.877-4.19-16.705-6.8-24.382-11.35-2.834-1.67-5.983-2.82-9.075-3.95-3.017-1.1-5.875-2.74-8.829-4.02-8.513-3.96-17.739-6.91-24.888-13.26-20.151-16.58-40.88-32.42-61.008-48.97-13.313-13.54-28.284-25.42-40.888-39.66a3.398 3.398 0 0 0-.323-.31c-3.797-3.08-9.498-6.01-10.444-10.72-.159-.8-2.054-1.53-2.565-.9-.268.33-.687.25-.977-.06-22.375-24.03-42.7-49.92-64.389-74.58-9.799-10.36-15.721-23.54-21.827-36.24-1.218-2.15-2.433-4.32-3.472-6.61a25.469 25.469 0 0 0-1.689-3.16c-5.805-9.12-10.274-19.03-15.45-28.52-.247-.46-.286-.92-.011-1.36.664-1.06-.282-2.59-1.416-3.11-3.274-1.5-3.533-7.04-5.129-10.35-.461-.89-1.267-2.43-1.891-3.64a1.965 1.965 0 0 1 .158-2.06l.067-.09c.8-1.09.193-2.68-1.103-3.08-.585-.18-.965-.6-1.17-1.18-4.567-12.91-9.697-25.7-13.448-38.9-.32-1.12-.744-2.22-1.244-3.27-4.083-8.64-6.573-17.94-9.538-27-.192-.58-.04-1.23.395-1.67.196-.19.405-.4.62-.62.883-.88.041-2.39-1.202-2.26-.719.08-1.251-.45-1.362-1.16-1.475-9.47-5.766-18.25-7.123-27.78-.798-7.48-8.874-15.46 1.982-21.26-3.48 2.47-8.426.37-9.425-3.78-3.29-13.68-8.907-26.83-9.867-40.96-.09-2.84-.725-5.71-1.116-8.57-.772-5.65-1.54-11.89-2.134-17.56-.225-2.15-.339-4.33-.7-6.42-3.205-25.07-5.176-50.41-4.644-75.68.018-.85-.022-1.7-.118-2.54-4.463-39.35.894-78.92 1.79-118.31-.071-14.68 3.951-28.89 6.537-43.24 3.16-14.88 5.255-30.21 12.008-44.01.295-.6.549-1.23.734-1.88 3.028-10.59 4.561-23.05 12.105-31.32.616-.67.069-1.86-.84-1.75a.93.93 0 0 1-.952-1.31c16.197-35.54 33.69-70.88 56.367-102.7.965-1.35 1.733-2.84 2.368-4.37 6.457-15.65 19.36-27.27 30.383-39.74 15.981-16.98 31.329-34.55 47.358-51.5 12.664-14.74 23.645-30.84 36.025-45.83 2.92-3.96 5.942-7.92 8.936-11.85 1.036-1.42 1.997-2.97 3.149-4.33 1.778-2.09 4.009-4.02 5.447-6.37.489-.79.985-1.44 1.583-2.16 3.213-3.85 5.865-8.16 8.988-12.12a1.27 1.27 0 0 1 1.471-.38c1.174.49 2.269-.86 1.547-1.91-.06-.08-.119-.17-.177-.25-.36-.52-.314-1.22.107-1.7a221.49 221.49 0 0 0 5.533-6.45c3.515-4.99 6.774-10.362 11.09-14.704 2.652-2.668 4.958-5.713 6.731-9.031 2.228-4.172 5.39-8.14 9.37-10.405 1.931-1.099 3.53-2.997 3.74-5.209.119-1.248.678-2.316 1.549-3.218 8.379-8.688 14.123-19.705 22.164-28.656 1.704-1.897 2.951-4.169 4.359-6.294 2.112-3.19 6.169-4.658 9.135-7.075 5.086-4.143 10.676-7.615 16.093-11.322 8.029-6.463 16.015-13.009 24.627-18.679 12.919-10.204 26.358-19.751 39.614-29.5 22.76-18.085 46.56-34.78 70.86-50.676a1.11 1.11 0 0 1 1.39.141l.22.216c.69.688 1.86.089 1.71-.875a1.007 1.007 0 0 1 1.29-1.124l.36.109c.72.221 1.44-.338 1.4-1.09-.02-.439.23-.845.62-1.04 5.51-2.726 10.26-6.685 15.57-9.715 10.41-7.94 23.67-9.79 34.78-16.245a.983.983 0 0 1 1.31.297c.01.022.02.043.04.065.58.881 1.93.178 1.69-.851-.09-.41.12-.713.48-.922 3.8-2.182 9.12-5.121 8.39 1.674 0-1.445.25-2.725.76-3.841 1.79-3.916 5.32-.394 7.05 3.547.89 2.017 2.64 4.006 1.48 5.881-.78 1.255-1.91 2.397-2.96 3.5-1.07 1.123-2.19 2.207-3.44 3.113-2.23 1.603-4.42 3.239-6.64 4.84 3.71-2.502 8.45-3.245 11.79-6.117 1.45-1.249 2.85-2.659 3.79-4.325 1.99-3.508.99-8.294 2.24-12.184-.4.995-.91 1.794-1.52 2.397-1.34 1.316-3.25.04-3.76-1.765a3.842 3.842 0 0 1 2.23-4.593c12.41-5.141 24.8-10.395 37.33-15.214 1.37-.489 4.07-1.423 5.45-1.912 2.67-1.266 5.32-2.555 7.94-3.941a1.3 1.3 0 0 1 1.62.328c.65.803 1.99.558 2.59-.288 2.87-4.074 9.32-4.561 14.02-6.621.99-.432 2-.745 3.07-.753 1.43-.011 2.84-.499 4.03-1.281 5.39-3.547 11.74-5.253 17.73-7.544 13.58-5.001 27.17-10.075 40.81-14.953.7-.252 1.43-.263 2.14-.024 1.12.378 2.39.093 3.32-.647 5.04-4.037 11.63-5.744 17.89-7.285 1.29-.319 2.54-.791 3.75-1.366 11.76-5.623 24.58-8.744 37.45-10.639 18.29-5.307 36.97-10.18 55.95-12.245 27.71-.195 55.4-.672 83.1-.622.55.001 1.07.238 1.43.65l.33.379c.69.786 1.94.672 2.47-.227a1.54 1.54 0 0 1 1.28-.75c12.59-.362 25.25-.387 37.74 1.317a3.75 3.75 0 0 1 2.52 1.508l.06.09c.08.103.15.212.21.326l.25.506c.21.403.6.676 1.05.728.32.036.63-.037.89-.208l.5-.319c.24-.153.49-.272.77-.353.42-.129.95-.285 1.49-.446a13.71 13.71 0 0 1 5.48-.474c38.56 4.387 77.55 6.213 115.47 14.961 13.34 1.874 26.71 3.802 39.76 7.094 11.37 1.211 22.55 3.715 33.88 5.164.54.069.9.614.73 1.139-.19.627.34 1.244 1 1.181 6.95-.67 13.53 2.269 20.2 3.742 27.68 8.166 55.78 14.903 83.25 23.771 30.82 11.674 61.66 23.376 92.41 35.217.91.348 1.78.77 2.62 1.259 40.36 23.613 82.15 45.102 119.66 73.207 10.63 7.005 21.21 14.109 31.5 21.619 12.16 7.571 22.01 18.194 32.9 27.407a68.133 68.133 0 0 1 6.81 6.089c1.57 1.599 3.39 2.932 5.18 4.266 1.55 1.144 2.92 2.487 4.14 3.965 1.79 2.167 3.73 4.239 6.14 5.691.53.317 1.01.608 1.38.834 7.84 6.249 14.95 13.334 22.78 19.575a19.76 19.76 0 0 1 2.1 1.931c10.44 11.237 20.87 22.514 30.67 34.304 8 7.532 14.24 16.62 21.98 24.38.91 1.06 1.91 2.07 2.89 3.1 3.8 3.99 8.16 8.3 11.3 12.83 1.16 1.67 2.12 3.52 2.94 5.38 1.13 2.57 2.7 4.93 4.5 7.09 5.22 6.27 8.39 14.06 12.82 20.89 7.6 9.64 13.56 20.46 19.73 31.02 1.73 2.57 3.95 4.99 5.2 7.82 1 2.23 1.79 4.61 3.17 6.62 2.84 4.15 4.41 9.73 6.88 14.11 1.66 2.95 2.78 6.2 3.12 9.51.08.78.58 1.45 1.32 1.69.15.05.3.1.46.14 1.07.35 1.46 1.7.71 2.55-.61.69-.49 1.74.2 2.35 5.36 4.72 7.57 12.51 9.81 19.32.43 1.31 1.23 2.54 1.98 3.69 2.79 4.27 4.93 10.18 7.26 14.72 1.27 2.49 2.24 5.23 3.46 7.61.19.39.24.84.11 1.25l-.57 1.77c-.33 1 .87 1.8 1.67 1.12.62-.51 1.56-.18 1.72.6 3.46 16.6 9.94 32.39 14.37 48.73 2.69 10.48 7.49 20.86 8.44 31.66.42 4.68 1.88 9.43 2.6 14.07.24 1.56.38 3.14.62 4.66 2.29 15.23 4.61 30.42 6.91 45.62 3.87 23.31 3.28 47.07 5.58 70.56.81 12.73 1.37 25.48 2.31 38.21.05.64-.08 1.28-.36 1.85-.49.98-.97 1.95-1.46 2.92-.41.82.11 1.81 1.03 1.91.72.09 1.23.74 1.16 1.46-1.8 16.43-1.85 32.99-3.19 49.46-.09 11.56-4.61 22.4-7.82 33.35a3.034 3.034 0 0 1-2.57 2.18c-.52.06-1.06.12-1.53.16-.49.06-.88.43-.95.92-.09.62.37 1.19 1 1.22.29.02.6.03.91.05 1.25.07 2.08 1.34 1.65 2.52-2.2 6.05-4.31 12.12-6.29 18.22-.26.8-.46 1.63-.6 2.46-2.42 14.23-7.68 27.75-12.32 41.35-5.71 17.36-11.74 34.6-17.32 52-4.06 14.13-15.33 24.34-21.81 37.23-6.5 9.85-12.4 20.48-21.2 28.51-7.26 8.52-14.33 17.46-23.01 24.59a23.183 23.183 0 0 0-3.95 4.15c-5.3 7.2-11.63 13.55-17.85 19.97-14.55 14.95-29.86 29.2-45.29 43.2-.69.63-1.43 1.2-2.21 1.72-19.94 13.16-38.69 28.45-60.51 38.42-32.4 15.97-65.19 31.22-97.47 47.46-29.7 13.25-59.32 26.66-88.99 40.02-53.13 27.81-105.97 56.2-159.03 84.1-6.08 2.85-12.87 3.68-19.37 5.21-19.9 4.01-39.61 9.02-59.62 12.39-64.83 15.19-130.24 28.06-195.2 42.45-62.01 12.36-124.05 24.62-186.1 36.84-10.62 2.23-21.41 3.86-31.81 7.04-29.76 8.94-59.44 18.17-89.19 27.11-3.17 1.03-6.49 1.24-9.82 1.31-2.57.06-5.07.76-7.55 1.41-1.45.37-2.93.59-4.44.68-1.32.07-2.65.16-3.95.43a646.506 646.506 0 0 1-45.91 7.52z" fill="#f1753f"/><path d="M-63.687 774.007c-16.95 9.677-35.727 15.424-53.694 22.889-5.04 1.644-9.764 4.659-14.963 5.693-2.463.489-4.979.867-7.287 1.855-12.885 5.514-25.816 10.938-39.707 13.253a1.026 1.026 0 0 1-1.006-.42 1.051 1.051 0 0 0-1.292-.342c-3.531 1.603-7.278 2.784-11.156 3.117-1.491.129-2.98.326-4.418.738a121.977 121.977 0 0 1-19.078 3.835 8.31 8.31 0 0 0-1.456.309c-2.763.856-5.548 1.692-8.311 2.548a.695.695 0 0 1-.897-.584.698.698 0 0 0-.976-.557c-4.118 1.811-8.418 3.332-12.94 3.489-.788.027-1.58.076-2.327.323-.11.037-.219.074-.329.113-4.593 1.622-10.233 2.177-15.086 2.595-3.644.314-7.392.11-11.022.579a.835.835 0 0 1-.868-.478.842.842 0 0 0-1.039-.44c-2.297.776-4.694 1.164-7.157 1.203-2.631.042-5.32.376-7.974.292-2.96-.093-5.965-.339-8.875.206l-.567.105a18.252 18.252 0 0 1-3.242.286c-5.831.023-11.661.427-17.494.529-3.685.251-7.473.845-11.138.159-.955-.179-1.85-.219-2.78.064-1.934.589-4.198-.358-6.219-.352-1.602.004-3.364.727-5.01.856-.55.043-1.103.043-1.65.11-3.149.386-6.293.716-9.446 1.168a.822.822 0 0 1-.939-.86c.038-.646-.659-1.085-1.248-.819-6.885 3.113-14.763 1.169-22.086 1.126-10.562-1.148-21.215-1.171-31.828-2.031-11.477-.761-23.34-.554-34.552-2.879a1.932 1.932 0 0 0-1.438.268c-.399.258-.857.551-1.29.829a.909.909 0 0 1-1.388-.626c-.107-.717-1.008-1.036-1.657-.712-2.906 1.451-6.45.011-9.589-.197-1.291-.189-3.868-.617-5.168-.826a79.22 79.22 0 0 0-.703-.106c-4.356-.641-7.236-4.975-5.861-9.158-2.276 11.269-10.805 5.504-17.076 4.822-3.503-.792-7.784-.151-10.614-2.718-.288-.261-.683-.385-1.058-.286l-.882.232a.33.33 0 0 1-.414-.316c-.005-.397-1.165-.661-1.487-.429-1.897 1.364-5.017-.45-7.389-.65a1.39 1.39 0 0 1-.313-.063 9.698 9.698 0 0 0-1.577-.338c-4.012-.573-9.32-1.814-13.372-1.921-1.982-.053-3.979-.273-5.957-.428a.927.927 0 0 1-.858-.895c-.019-.618-.631-1.042-1.229-.886-6.272 1.63-12.787-.383-19.216-.928-1.139-.097-1.731-1.511-.996-2.387.165-.196.231-.388.269-.641 1.39-9.195 6.431-17.309 8.02-26.426a1.014 1.014 0 0 1 1.192-.819c1.002.202 1.634-1.074.831-1.706l-.234-.185c-.629-.495-.3-1.505.499-1.536a.86.86 0 0 0 .721-1.273l-.102-.186a.992.992 0 0 1 .498-1.396l.213-.086c.546-.221.786-.862.518-1.387l-.107-.209a.844.844 0 0 1 .673-1.225c.573-.054.927-.656.792-1.216-.607-2.524.254-5.323 1.804-7.6 1.586-2.329 2.679-5.224 3.3-7.973.907-4.01 3.798-7.819 5.541-11.614.433-.943.679-1.955.92-2.965.93-3.91 2.65-7.607 4.763-11.033.931-1.509 1.658-3.165 2.023-4.9.319-1.519.914-2.941 1.637-4.314 4.255-8.075 5.544-17.558 11.033-24.922.225-.302.314-.687.234-1.055a1.274 1.274 0 0 1 .183-.976c1.68-2.531 3.317-5.102 5.2-7.51.242-.31.367-.695.345-1.088a1.599 1.599 0 0 1 .413-1.161c1.757-1.94 3.471-3.896 5.217-5.825 9.991-10.848 20.583-21.123 30.658-31.885a54.336 54.336 0 0 1 5.441-4.272c.38-.262.574-.722.487-1.175a1.156 1.156 0 0 1 .389-1.097c5.076-4.323 9.551-9.296 13.936-14.322a19.34 19.34 0 0 1 6.106-3.898.687.687 0 0 0 .336-1 .686.686 0 0 1 .155-.897c5.22-4.234 8.082-11.579 14.646-13.892.578-.203.784-.961.343-1.386a.774.774 0 0 1 .005-1.119c3.157-2.995 6.177-6.16 9.557-8.88 1.027-.825 1.973-1.75 2.755-2.81.689-.935 1.436-1.951 1.906-2.585 1.966-2.091 4.064-4.047 6.237-5.919 1.66-1.43 3.044-3.149 4.399-4.871 2.465-3.13 5.64-5.631 8.73-8.159a16.081 16.081 0 0 0 2.546-2.617c4.112-5.309 8.483-11.241 14.531-14.042.553-.256.797-.928.499-1.46-.224-.4-.148-.9.179-1.22 2.664-2.611 5.25-5.491 8.874-6.516.686-.194 1.158-.869 1.003-1.565a1.23 1.23 0 0 1 .707-1.395 249.51 249.51 0 0 0 4.164-1.875c1.542-.711 2.647-2.083 3.767-3.359 1.996-2.275 5.144-3.245 8.086-4.06a.74.74 0 0 0 .466-1.043.746.746 0 0 1 .368-1.012 120.528 120.528 0 0 0 6.382-3.056 1.085 1.085 0 0 1 1.513.586c.377 1.021 1.857.903 2.068-.164l.222-1.118c.083-.419.352-.777.731-.972 16.34-8.409 32.833-16.599 49.721-23.897 1.924-.832 3.658-2.036 5.366-3.252 5.827-4.148 13.212-5.623 20.023-7.504 10.872-3.703 22.069-6.355 33.195-9.061a19.966 19.966 0 0 0 2.56-.821c10.968-4.294 22.656-6.144 33.705-10.129 10.171-2.983 20.465-5.561 30.467-8.999.511-.175 1.019-.049 1.221.452.412 1.025 2.977 1.008 3.772.241 2.453-2.364 6.911-2.67 10.294-3.524 29.916-5.371 59.6-12.409 89.592-17.014 2.865-.842 5.702-1.95 8.652-2.331 1.888-.244 3.804-.365 5.645-.85 2.6-.683 5.215-1.308 7.88-1.56 6.095-.792 12.124-1.919 18.223-2.471 11.36-2.302 22.902-3.229 34.327-4.906a226.898 226.898 0 0 0 7.675-1.738.57.57 0 0 1 .706.562c-.01.573.843.868 1.282.499 2.35-1.979 5.753-1.948 8.724-1.994a3.15 3.15 0 0 0 .656-.081c2.164-.508 4.3-1.04 6.422-1.602a.821.821 0 0 1 .98.508.835.835 0 0 0 1.15.453c2.504-1.22 5.157-2.097 7.919-1.976 1 .044 2.007.07 2.987-.131 2.455-.503 4.892-1.049 7.371-1.496 3.088-.388 6.15-.838 9.238-1.106 3.073-.6 6.136-1.22 9.234-1.467 13.896-2.216 27.838-3.986 41.689-6.463a.75.75 0 0 1 .879.67c.053.587.738.89 1.238.577 2.879-1.81 6.189-2.495 9.543-2.632a6.945 6.945 0 0 0 2.228-.441c11.576-4.47 23.292-8.796 35.367-11.655 7.314-2.182 14.034-6.275 21.573-7.653 1.51-.276 3.015-.603 4.454-1.136 22.974-8.513 46.513-15.277 69.637-23.322 1.751-.609 3.594-.896 5.423-1.201 7.362-1.229 14.087-6.066 21.699-6.832a10.516 10.516 0 0 0 1.864-.336 276.262 276.262 0 0 0 8.244-2.507.794.794 0 0 1 1.024.599c.116.58.808.836 1.303.512 3.353-2.194 7.383-2.894 11.25-3.605 3.847-.156 7.435-1.444 11.02-2.678a.955.955 0 0 1 1.156.461.983.983 0 0 0 1.294.421c2.983-1.417 6.161-2.321 9.422-2.922.898-.165 1.817-.162 2.73-.187 1.544-.043 3.035-.387 4.487-.888 2.178-.751 4.404-1.425 6.707-1.528 1.162-.052 2.325-.073 3.485-.005 1.446.086 2.896.183 4.344.131 4.76-.171 9.528.155 14.281.413 1.366.074 2.706.389 4.046.666 5.84 1.207 12.489-.91 18.104.302 1.82.393 1.781 2.673.175 3.613-.297.174-.475.364-.684.638a19.884 19.884 0 0 1-3.041 3.166c-.949.793-1.899 1.588-2.765 2.471-2.456 2.501-5.06 4.853-7.655 7.185a63.773 63.773 0 0 1-5.695 4.103 1.04 1.04 0 0 0-.428 1.205c.194.575-.156 1.187-.723 1.405-4.634 1.783-6.364 7.448-9.91 11.064-1.093 1.114-2.288 2.141-3.248 3.372-5.615 7.197-11.363 14.373-17.803 20.868a6.973 6.973 0 0 0-.733.867c-1.676 2.356-3.363 4.794-6.095 5.889-.581.233-.873.936-.538 1.465a.908.908 0 0 1-.092 1.091c-5.894 6.586-11.245 13.64-17.295 20.066-4.251 5.175-8.367 10.439-13.013 15.246-6.495 7.073-11.715 15.663-18.744 22.196-2.879 2.677-5.188 6.003-7.599 9.108-1.873 2.412-4.215 4.514-6.334 6.691-1.283 1.127-2.566 2.254-3.856 3.364a19.604 19.604 0 0 0-2.425 2.498c-1.762 2.168-3.576 4.294-5.48 6.326-4.091 3.924-7.985 8.031-12.038 11.988-2.418 2.613-4.88 5.208-7.54 7.572a23.298 23.298 0 0 0-2.13 2.144c-3.403 3.919-7.09 7.599-10.837 11.182-1.592 1.724-3.474 2.944-5.677 3.647-.612.195-.81 1.015-.311 1.421a.76.76 0 0 1 .055 1.128c-1.983 1.969-3.976 3.957-5.983 5.912-2.713 2.651-5.103 5.744-7.936 8.288-2.809 2.521-5.579 5.219-8.021 8.098-2.409 2.84-5.29 5.313-7.97 7.891-.45.441-.909.87-1.377 1.288-2.314 2.066-4.29 4.529-6.334 6.863-1.247 1.423-2.659 2.718-4.001 4.04-9.327 8.711-18.469 17.634-28.057 26.067-2.795 2.901-5.703 5.705-8.657 8.456-4.478 4.568-9.31 8.752-13.91 13.201a108.272 108.272 0 0 1-3.743 2.974 16.164 16.164 0 0 0-2.711 2.575c-3.763 4.556-7.922 9.278-13.461 11.464-.526.207-.753.845-.445 1.319a.862.862 0 0 1-.152 1.113c-5.474 4.867-10.734 9.931-15.978 15.033a389.907 389.907 0 0 0-5.148 4.823c-6.548 6.588-14.717 11.143-22.402 16.221-2.97 2.419-6.225 4.448-9.462 6.519-18.283 12.479-36.557 24.98-54.895 37.386-4.953 3.986-10.858 6.412-16.726 8.772-1.934.778-3.68 1.943-5.377 3.155-6.723 4.804-15.277 6.678-22.162 11.399-.7.479-1.408.948-2.157 1.348-8.877 4.74-18.254 8.474-26.953 13.573z" fill="#97c74b"/></svg>